<!-- icon666.com - MILLIONS OF FREE VECTOR ICONS --><svg id="Layer_2_1_" enable-background="new 0 0 32 32" viewBox="0 0 32 32" xmlns="http://www.w3.org/2000/svg"><path d="m20.12246 13.96289c1.7459-1.4069 2.88691-3.67454 2.88691-6.23581 0-4.26093-3.14479-7.72708-7.00937-7.72708s-7.00937 3.46615-7.00937 7.72708c0 2.56126 1.14108 4.82891 2.88698 6.23581-5.49975 1.75111-9.49636 6.90423-9.49636 12.97669v.5599c0 2.48177 2.01875 4.50052 4.50104 4.50052h18.23542c2.48229 0 4.50104-2.01875 4.50104-4.50052v-.5599c0-6.07239-3.99655-11.22558-9.49629-12.97669zm-8.9985-6.23581c0-3.08437 2.1875-5.59375 4.87604-5.59375s4.87604 2.50937 4.87604 5.59375c0 3.0849-2.1875 5.59427-4.87604 5.59427s-4.87604-2.50937-4.87604-5.59427zm16.36146 19.7724c0 1.30521-1.0625 2.36719-2.36771 2.36719h-18.23542c-1.30521 0-2.36771-1.06198-2.36771-2.36719v-.5599c0-6.33281 5.15208-11.4849 11.48542-11.4849s11.48542 5.15208 11.48542 11.4849z"></path></svg>